<svg width="235" height="32" viewBox="0 0 235 32" fill="none" xmlns="http://www.w3.org/2000/svg">
<path d="M219.392 15.192C218.635 15.192 217.936 15.0533 217.296 14.776C216.667 14.488 216.149 14.0827 215.744 13.56L217.184 11.832C217.792 12.6533 218.485 13.064 219.264 13.064C220.32 13.064 220.848 12.4453 220.848 11.208V5.88H216.912V3.8H223.424V11.064C223.424 12.44 223.083 13.4747 222.4 14.168C221.717 14.8507 220.715 15.192 219.392 15.192ZM229.504 15.192C228.619 15.192 227.76 15.0747 226.928 14.84C226.107 14.5947 225.446 14.28 224.944 13.896L225.824 11.944C226.304 12.296 226.875 12.5787 227.536 12.792C228.198 13.0053 228.859 13.112 229.52 13.112C230.256 13.112 230.8 13.0053 231.152 12.792C231.504 12.568 231.68 12.2747 231.68 11.912C231.68 11.6453 231.574 11.4267 231.36 11.256C231.158 11.0747 230.891 10.9307 230.56 10.824C230.24 10.7173 229.803 10.6 229.248 10.472C228.395 10.2693 227.696 10.0667 227.152 9.864C226.608 9.66133 226.139 9.336 225.744 8.888C225.36 8.44 225.168 7.84267 225.168 7.096C225.168 6.44533 225.344 5.85867 225.696 5.336C226.048 4.80267 226.576 4.38133 227.28 4.072C227.995 3.76267 228.864 3.608 229.888 3.608C230.603 3.608 231.302 3.69333 231.984 3.864C232.667 4.03467 233.264 4.28 233.776 4.6L232.976 6.568C231.942 5.98133 230.907 5.688 229.872 5.688C229.147 5.688 228.608 5.80533 228.256 6.04C227.915 6.27467 227.744 6.584 227.744 6.968C227.744 7.352 227.942 7.64 228.336 7.832C228.742 8.01333 229.355 8.19467 230.176 8.376C231.03 8.57867 231.728 8.78133 232.272 8.984C232.816 9.18667 233.28 9.50667 233.664 9.944C234.059 10.3813 234.256 10.9733 234.256 11.72C234.256 12.36 234.075 12.9467 233.712 13.48C233.36 14.0027 232.827 14.4187 232.112 14.728C231.398 15.0373 230.528 15.192 229.504 15.192Z" fill="#8DA4B4"/>
<path d="M57.264 8.2C58.752 8.2 60.04 8.448 61.128 8.944C62.232 9.44 63.08 10.144 63.672 11.056C64.264 11.968 64.56 13.048 64.56 14.296C64.56 15.528 64.264 16.608 63.672 17.536C63.08 18.448 62.232 19.152 61.128 19.648C60.04 20.128 58.752 20.368 57.264 20.368H53.88V25H49.992V8.2H57.264ZM57.048 17.2C58.216 17.2 59.104 16.952 59.712 16.456C60.32 15.944 60.624 15.224 60.624 14.296C60.624 13.352 60.32 12.632 59.712 12.136C59.104 11.624 58.216 11.368 57.048 11.368H53.88V17.2H57.048ZM70.4078 13.792C70.8558 13.168 71.4558 12.696 72.2078 12.376C72.9758 12.056 73.8558 11.896 74.8478 11.896V15.352C74.4318 15.32 74.1518 15.304 74.0078 15.304C72.9358 15.304 72.0958 15.608 71.4878 16.216C70.8798 16.808 70.5758 17.704 70.5758 18.904V25H66.8318V12.088H70.4078V13.792ZM76.8339 12.088H80.5779V25H76.8339V12.088ZM78.7059 10.288C78.0179 10.288 77.4579 10.088 77.0259 9.688C76.5939 9.288 76.3779 8.792 76.3779 8.2C76.3779 7.608 76.5939 7.112 77.0259 6.712C77.4579 6.312 78.0179 6.112 78.7059 6.112C79.3939 6.112 79.9539 6.304 80.3859 6.688C80.8179 7.072 81.0339 7.552 81.0339 8.128C81.0339 8.752 80.8179 9.272 80.3859 9.688C79.9539 10.088 79.3939 10.288 78.7059 10.288ZM88.1567 25.192C87.0847 25.192 86.0367 25.064 85.0127 24.808C83.9887 24.536 83.1727 24.2 82.5647 23.8L83.8127 21.112C84.3887 21.48 85.0847 21.784 85.9007 22.024C86.7167 22.248 87.5167 22.36 88.3007 22.36C89.8847 22.36 90.6767 21.968 90.6767 21.184C90.6767 20.816 90.4607 20.552 90.0287 20.392C89.5967 20.232 88.9327 20.096 88.0367 19.984C86.9807 19.824 86.1087 19.64 85.4207 19.432C84.7327 19.224 84.1327 18.856 83.6207 18.328C83.1247 17.8 82.8767 17.048 82.8767 16.072C82.8767 15.256 83.1087 14.536 83.5727 13.912C84.0527 13.272 84.7407 12.776 85.6367 12.424C86.5487 12.072 87.6207 11.896 88.8527 11.896C89.7647 11.896 90.6687 12 91.5647 12.208C92.4767 12.4 93.2287 12.672 93.8207 13.024L92.5727 15.688C91.4367 15.048 90.1967 14.728 88.8527 14.728C88.0527 14.728 87.4527 14.84 87.0527 15.064C86.6527 15.288 86.4527 15.576 86.4527 15.928C86.4527 16.328 86.6687 16.608 87.1007 16.768C87.5327 16.928 88.2207 17.08 89.1647 17.224C90.2207 17.4 91.0847 17.592 91.7567 17.8C92.4287 17.992 93.0127 18.352 93.5087 18.88C94.0047 19.408 94.2527 20.144 94.2527 21.088C94.2527 21.888 94.0127 22.6 93.5327 23.224C93.0527 23.848 92.3487 24.336 91.4207 24.688C90.5087 25.024 89.4207 25.192 88.1567 25.192ZM112.859 11.896C114.475 11.896 115.755 12.376 116.699 13.336C117.659 14.28 118.139 15.704 118.139 17.608V25H114.395V18.184C114.395 17.16 114.179 16.4 113.747 15.904C113.331 15.392 112.731 15.136 111.947 15.136C111.067 15.136 110.371 15.424 109.859 16C109.347 16.56 109.091 17.4 109.091 18.52V25H105.347V18.184C105.347 16.152 104.531 15.136 102.899 15.136C102.035 15.136 101.347 15.424 100.835 16C100.323 16.56 100.067 17.4 100.067 18.52V25H96.3227V12.088H99.8987V13.576C100.379 13.032 100.963 12.616 101.651 12.328C102.355 12.04 103.123 11.896 103.955 11.896C104.867 11.896 105.691 12.08 106.427 12.448C107.163 12.8 107.755 13.32 108.203 14.008C108.731 13.336 109.395 12.816 110.195 12.448C111.011 12.08 111.899 11.896 112.859 11.896ZM126.463 11.896C128.463 11.896 129.999 12.376 131.071 13.336C132.143 14.28 132.679 15.712 132.679 17.632V25H129.175V23.392C128.471 24.592 127.159 25.192 125.239 25.192C124.247 25.192 123.383 25.024 122.647 24.688C121.927 24.352 121.375 23.888 120.991 23.296C120.607 22.704 120.415 22.032 120.415 21.28C120.415 20.08 120.863 19.136 121.759 18.448C122.671 17.76 124.071 17.416 125.959 17.416H128.935C128.935 16.6 128.687 15.976 128.191 15.544C127.695 15.096 126.951 14.872 125.959 14.872C125.271 14.872 124.591 14.984 123.919 15.208C123.263 15.416 122.703 15.704 122.239 16.072L120.895 13.456C121.599 12.96 122.439 12.576 123.415 12.304C124.407 12.032 125.423 11.896 126.463 11.896ZM126.175 22.672C126.815 22.672 127.383 22.528 127.879 22.24C128.375 21.936 128.727 21.496 128.935 20.92V19.6H126.367C124.831 19.6 124.063 20.104 124.063 21.112C124.063 21.592 124.247 21.976 124.615 22.264C124.999 22.536 125.519 22.672 126.175 22.672ZM150.688 25.288C148.976 25.288 147.424 24.92 146.032 24.184C144.656 23.432 143.568 22.4 142.768 21.088C141.984 19.76 141.592 18.264 141.592 16.6C141.592 14.936 141.984 13.448 142.768 12.136C143.568 10.808 144.656 9.776 146.032 9.04C147.424 8.288 148.984 7.912 150.712 7.912C152.168 7.912 153.48 8.168 154.648 8.68C155.832 9.192 156.824 9.928 157.624 10.888L155.128 13.192C153.992 11.88 152.584 11.224 150.904 11.224C149.864 11.224 148.936 11.456 148.12 11.92C147.304 12.368 146.664 13 146.2 13.816C145.752 14.632 145.528 15.56 145.528 16.6C145.528 17.64 145.752 18.568 146.2 19.384C146.664 20.2 147.304 20.84 148.12 21.304C148.936 21.752 149.864 21.976 150.904 21.976C152.584 21.976 153.992 21.312 155.128 19.984L157.624 22.288C156.824 23.264 155.832 24.008 154.648 24.52C153.464 25.032 152.144 25.288 150.688 25.288ZM159.746 7.192H163.49V25H159.746V7.192ZM166.724 12.088H170.468V25H166.724V12.088ZM168.596 10.288C167.908 10.288 167.348 10.088 166.916 9.688C166.484 9.288 166.268 8.792 166.268 8.2C166.268 7.608 166.484 7.112 166.916 6.712C167.348 6.312 167.908 6.112 168.596 6.112C169.284 6.112 169.844 6.304 170.276 6.688C170.708 7.072 170.924 7.552 170.924 8.128C170.924 8.752 170.708 9.272 170.276 9.688C169.844 10.088 169.284 10.288 168.596 10.288ZM186.351 18.592C186.351 18.64 186.327 18.976 186.279 19.6H176.511C176.687 20.4 177.103 21.032 177.759 21.496C178.415 21.96 179.231 22.192 180.207 22.192C180.879 22.192 181.471 22.096 181.983 21.904C182.511 21.696 182.999 21.376 183.447 20.944L185.439 23.104C184.223 24.496 182.447 25.192 180.111 25.192C178.655 25.192 177.367 24.912 176.247 24.352C175.127 23.776 174.263 22.984 173.655 21.976C173.047 20.968 172.743 19.824 172.743 18.544C172.743 17.28 173.039 16.144 173.631 15.136C174.239 14.112 175.063 13.32 176.103 12.76C177.159 12.184 178.335 11.896 179.631 11.896C180.895 11.896 182.039 12.168 183.063 12.712C184.087 13.256 184.887 14.04 185.463 15.064C186.055 16.072 186.351 17.248 186.351 18.592ZM179.655 14.728C178.807 14.728 178.095 14.968 177.519 15.448C176.943 15.928 176.591 16.584 176.463 17.416H182.823C182.695 16.6 182.343 15.952 181.767 15.472C181.191 14.976 180.487 14.728 179.655 14.728ZM196.452 11.896C198.052 11.896 199.34 12.376 200.316 13.336C201.308 14.296 201.804 15.72 201.804 17.608V25H198.06V18.184C198.06 17.16 197.836 16.4 197.388 15.904C196.94 15.392 196.292 15.136 195.444 15.136C194.5 15.136 193.748 15.432 193.188 16.024C192.628 16.6 192.348 17.464 192.348 18.616V25H188.604V12.088H192.18V13.6C192.676 13.056 193.292 12.64 194.028 12.352C194.764 12.048 195.572 11.896 196.452 11.896ZM213.285 24.376C212.917 24.648 212.461 24.856 211.917 25C211.389 25.128 210.829 25.192 210.237 25.192C208.701 25.192 207.509 24.8 206.661 24.016C205.829 23.232 205.413 22.08 205.413 20.56V15.256H203.421V12.376H205.413V9.232H209.157V12.376H212.373V15.256H209.157V20.512C209.157 21.056 209.293 21.48 209.565 21.784C209.853 22.072 210.253 22.216 210.765 22.216C211.357 22.216 211.861 22.056 212.277 21.736L213.285 24.376Z" fill="#082133"/>
<circle opacity="0.5" cx="11.4286" cy="11.4286" r="11.4286" fill="#C9D3DB"/>
<circle cx="20.5714" cy="20.5714" r="11.4286" fill="#25C26A"/>
<circle cx="20.5714" cy="20.5714" r="11.4286" fill="#F1DA26"/>
<path d="M11.4287 22.8571C17.7405 22.8571 22.8573 17.7404 22.8573 11.4286C22.8573 10.7132 22.7915 10.0132 22.6658 9.33431C21.9868 9.20856 21.2868 9.14282 20.5714 9.14282C14.2596 9.14282 9.14282 14.2596 9.14282 20.5714C9.14282 21.2867 9.20854 21.9867 9.33428 22.6656C10.0133 22.7914 10.7133 22.8571 11.4287 22.8571Z" fill="#08A54D"/>
<path d="M11.4287 22.8571C17.7405 22.8571 22.8573 17.7404 22.8573 11.4286C22.8573 10.7132 22.7915 10.0132 22.6658 9.33431C21.9868 9.20856 21.2868 9.14282 20.5714 9.14282C14.2596 9.14282 9.14282 14.2596 9.14282 20.5714C9.14282 21.2867 9.20854 21.9867 9.33428 22.6656C10.0133 22.7914 10.7133 22.8571 11.4287 22.8571Z" fill="#DEC500"/>
</svg>
