<svg width="161" height="32" viewBox="0 0 161 32" fill="none" xmlns="http://www.w3.org/2000/svg">
<path d="M145.392 15.192C144.635 15.192 143.936 15.0533 143.296 14.776C142.667 14.488 142.149 14.0827 141.744 13.56L143.184 11.832C143.792 12.6533 144.485 13.064 145.264 13.064C146.32 13.064 146.848 12.4453 146.848 11.208V5.88H142.912V3.8H149.424V11.064C149.424 12.44 149.083 13.4747 148.4 14.168C147.717 14.8507 146.715 15.192 145.392 15.192ZM155.504 15.192C154.619 15.192 153.76 15.0747 152.928 14.84C152.107 14.5947 151.446 14.28 150.944 13.896L151.824 11.944C152.304 12.296 152.875 12.5787 153.536 12.792C154.198 13.0053 154.859 13.112 155.52 13.112C156.256 13.112 156.8 13.0053 157.152 12.792C157.504 12.568 157.68 12.2747 157.68 11.912C157.68 11.6453 157.574 11.4267 157.36 11.256C157.158 11.0747 156.891 10.9307 156.56 10.824C156.24 10.7173 155.803 10.6 155.248 10.472C154.395 10.2693 153.696 10.0667 153.152 9.864C152.608 9.66133 152.139 9.336 151.744 8.888C151.36 8.44 151.168 7.84267 151.168 7.096C151.168 6.44533 151.344 5.85867 151.696 5.336C152.048 4.80267 152.576 4.38133 153.28 4.072C153.995 3.76267 154.864 3.608 155.888 3.608C156.603 3.608 157.302 3.69333 157.984 3.864C158.667 4.03467 159.264 4.28 159.776 4.6L158.976 6.568C157.942 5.98133 156.907 5.688 155.872 5.688C155.147 5.688 154.608 5.80533 154.256 6.04C153.915 6.27467 153.744 6.584 153.744 6.968C153.744 7.352 153.942 7.64 154.336 7.832C154.742 8.01333 155.355 8.19467 156.176 8.376C157.03 8.57867 157.728 8.78133 158.272 8.984C158.816 9.18667 159.28 9.50667 159.664 9.944C160.059 10.3813 160.256 10.9733 160.256 11.72C160.256 12.36 160.075 12.9467 159.712 13.48C159.36 14.0027 158.827 14.4187 158.112 14.728C157.398 15.0373 156.528 15.192 155.504 15.192Z" fill="#8DA4B4"/>
<path d="M57.264 8.2C58.752 8.2 60.04 8.448 61.128 8.944C62.232 9.44 63.08 10.144 63.672 11.056C64.264 11.968 64.56 13.048 64.56 14.296C64.56 15.528 64.264 16.608 63.672 17.536C63.08 18.448 62.232 19.152 61.128 19.648C60.04 20.128 58.752 20.368 57.264 20.368H53.88V25H49.992V8.2H57.264ZM57.048 17.2C58.216 17.2 59.104 16.952 59.712 16.456C60.32 15.944 60.624 15.224 60.624 14.296C60.624 13.352 60.32 12.632 59.712 12.136C59.104 11.624 58.216 11.368 57.048 11.368H53.88V17.2H57.048ZM74.9141 11.896C76.5141 11.896 77.8021 12.376 78.7781 13.336C79.7701 14.296 80.2661 15.72 80.2661 17.608V25H76.5221V18.184C76.5221 17.16 76.2981 16.4 75.8501 15.904C75.4021 15.392 74.7541 15.136 73.9061 15.136C72.9621 15.136 72.2101 15.432 71.6501 16.024C71.0901 16.6 70.8101 17.464 70.8101 18.616V25H67.0661V7.192H70.8101V13.432C71.3061 12.936 71.9061 12.56 72.6101 12.304C73.3141 12.032 74.0821 11.896 74.9141 11.896ZM89.7045 25.192C88.3445 25.192 87.1205 24.912 86.0325 24.352C84.9605 23.776 84.1205 22.984 83.5125 21.976C82.9045 20.968 82.6005 19.824 82.6005 18.544C82.6005 17.264 82.9045 16.12 83.5125 15.112C84.1205 14.104 84.9605 13.32 86.0325 12.76C87.1205 12.184 88.3445 11.896 89.7045 11.896C91.0645 11.896 92.2805 12.184 93.3525 12.76C94.4245 13.32 95.2645 14.104 95.8725 15.112C96.4805 16.12 96.7845 17.264 96.7845 18.544C96.7845 19.824 96.4805 20.968 95.8725 21.976C95.2645 22.984 94.4245 23.776 93.3525 24.352C92.2805 24.912 91.0645 25.192 89.7045 25.192ZM89.7045 22.12C90.6645 22.12 91.4485 21.8 92.0565 21.16C92.6805 20.504 92.9925 19.632 92.9925 18.544C92.9925 17.456 92.6805 16.592 92.0565 15.952C91.4485 15.296 90.6645 14.968 89.7045 14.968C88.7445 14.968 87.9525 15.296 87.3285 15.952C86.7045 16.592 86.3925 17.456 86.3925 18.544C86.3925 19.632 86.7045 20.504 87.3285 21.16C87.9525 21.8 88.7445 22.12 89.7045 22.12ZM107.375 24.376C107.007 24.648 106.551 24.856 106.007 25C105.479 25.128 104.919 25.192 104.327 25.192C102.791 25.192 101.599 24.8 100.751 24.016C99.9191 23.232 99.5031 22.08 99.5031 20.56V15.256H97.5111V12.376H99.5031V9.232H103.247V12.376H106.463V15.256H103.247V20.512C103.247 21.056 103.383 21.48 103.655 21.784C103.943 22.072 104.343 22.216 104.855 22.216C105.447 22.216 105.951 22.056 106.367 21.736L107.375 24.376ZM114.982 25.192C113.622 25.192 112.398 24.912 111.31 24.352C110.238 23.776 109.398 22.984 108.79 21.976C108.182 20.968 107.878 19.824 107.878 18.544C107.878 17.264 108.182 16.12 108.79 15.112C109.398 14.104 110.238 13.32 111.31 12.76C112.398 12.184 113.622 11.896 114.982 11.896C116.342 11.896 117.558 12.184 118.63 12.76C119.702 13.32 120.542 14.104 121.15 15.112C121.758 16.12 122.062 17.264 122.062 18.544C122.062 19.824 121.758 20.968 121.15 21.976C120.542 22.984 119.702 23.776 118.63 24.352C117.558 24.912 116.342 25.192 114.982 25.192ZM114.982 22.12C115.942 22.12 116.726 21.8 117.334 21.16C117.958 20.504 118.27 19.632 118.27 18.544C118.27 17.456 117.958 16.592 117.334 15.952C116.726 15.296 115.942 14.968 114.982 14.968C114.022 14.968 113.23 15.296 112.606 15.952C111.982 16.592 111.67 17.456 111.67 18.544C111.67 19.632 111.982 20.504 112.606 21.16C113.23 21.8 114.022 22.12 114.982 22.12ZM132.173 11.896C133.773 11.896 135.061 12.376 136.037 13.336C137.029 14.296 137.525 15.72 137.525 17.608V25H133.781V18.184C133.781 17.16 133.557 16.4 133.109 15.904C132.661 15.392 132.013 15.136 131.165 15.136C130.221 15.136 129.469 15.432 128.909 16.024C128.349 16.6 128.069 17.464 128.069 18.616V25H124.325V12.088H127.901V13.6C128.397 13.056 129.013 12.64 129.749 12.352C130.485 12.048 131.293 11.896 132.173 11.896Z" fill="#082133"/>
<circle opacity="0.5" cx="11.4286" cy="11.4286" r="11.4286" fill="#C9D3DB"/>
<circle cx="20.5714" cy="20.5714" r="11.4286" fill="#25C26A"/>
<circle cx="20.5714" cy="20.5714" r="11.4286" fill="#F1DA26"/>
<path d="M11.4287 22.8571C17.7405 22.8571 22.8573 17.7404 22.8573 11.4286C22.8573 10.7132 22.7915 10.0132 22.6658 9.33431C21.9868 9.20856 21.2868 9.14282 20.5714 9.14282C14.2596 9.14282 9.14282 14.2596 9.14282 20.5714C9.14282 21.2867 9.20854 21.9867 9.33428 22.6656C10.0133 22.7914 10.7133 22.8571 11.4287 22.8571Z" fill="#08A54D"/>
<path d="M11.4287 22.8571C17.7405 22.8571 22.8573 17.7404 22.8573 11.4286C22.8573 10.7132 22.7915 10.0132 22.6658 9.33431C21.9868 9.20856 21.2868 9.14282 20.5714 9.14282C14.2596 9.14282 9.14282 14.2596 9.14282 20.5714C9.14282 21.2867 9.20854 21.9867 9.33428 22.6656C10.0133 22.7914 10.7133 22.8571 11.4287 22.8571Z" fill="#DEC500"/>
</svg>