<svg width="238" height="32" viewBox="0 0 238 32" fill="none" xmlns="http://www.w3.org/2000/svg">
<path d="M58.264 7.2C59.752 7.2 61.04 7.448 62.128 7.944C63.232 8.44 64.08 9.144 64.672 10.056C65.264 10.968 65.56 12.048 65.56 13.296C65.56 14.528 65.264 15.608 64.672 16.536C64.08 17.448 63.232 18.152 62.128 18.648C61.04 19.128 59.752 19.368 58.264 19.368H54.88V24H50.992V7.2H58.264ZM58.048 16.2C59.216 16.2 60.104 15.952 60.712 15.456C61.32 14.944 61.624 14.224 61.624 13.296C61.624 12.352 61.32 11.632 60.712 11.136C60.104 10.624 59.216 10.368 58.048 10.368H54.88V16.2H58.048ZM71.4078 12.792C71.8558 12.168 72.4558 11.696 73.2078 11.376C73.9758 11.056 74.8558 10.896 75.8478 10.896V14.352C75.4318 14.32 75.1518 14.304 75.0078 14.304C73.9358 14.304 73.0958 14.608 72.4878 15.216C71.8798 15.808 71.5758 16.704 71.5758 17.904V24H67.8318V11.088H71.4078V12.792ZM77.8339 11.088H81.5779V24H77.8339V11.088ZM79.7059 9.288C79.0179 9.288 78.4579 9.088 78.0259 8.688C77.5939 8.288 77.3779 7.792 77.3779 7.2C77.3779 6.608 77.5939 6.112 78.0259 5.712C78.4579 5.312 79.0179 5.112 79.7059 5.112C80.3939 5.112 80.9539 5.304 81.3859 5.688C81.8179 6.072 82.0339 6.552 82.0339 7.128C82.0339 7.752 81.8179 8.272 81.3859 8.688C80.9539 9.088 80.3939 9.288 79.7059 9.288ZM89.1567 24.192C88.0847 24.192 87.0367 24.064 86.0127 23.808C84.9887 23.536 84.1727 23.2 83.5647 22.8L84.8127 20.112C85.3887 20.48 86.0847 20.784 86.9007 21.024C87.7167 21.248 88.5167 21.36 89.3007 21.36C90.8847 21.36 91.6767 20.968 91.6767 20.184C91.6767 19.816 91.4607 19.552 91.0287 19.392C90.5967 19.232 89.9327 19.096 89.0367 18.984C87.9807 18.824 87.1087 18.64 86.4207 18.432C85.7327 18.224 85.1327 17.856 84.6207 17.328C84.1247 16.8 83.8767 16.048 83.8767 15.072C83.8767 14.256 84.1087 13.536 84.5727 12.912C85.0527 12.272 85.7407 11.776 86.6367 11.424C87.5487 11.072 88.6207 10.896 89.8527 10.896C90.7647 10.896 91.6687 11 92.5647 11.208C93.4767 11.4 94.2287 11.672 94.8207 12.024L93.5727 14.688C92.4367 14.048 91.1967 13.728 89.8527 13.728C89.0527 13.728 88.4527 13.84 88.0527 14.064C87.6527 14.288 87.4527 14.576 87.4527 14.928C87.4527 15.328 87.6687 15.608 88.1007 15.768C88.5327 15.928 89.2207 16.08 90.1647 16.224C91.2207 16.4 92.0847 16.592 92.7567 16.8C93.4287 16.992 94.0127 17.352 94.5087 17.88C95.0047 18.408 95.2527 19.144 95.2527 20.088C95.2527 20.888 95.0127 21.6 94.5327 22.224C94.0527 22.848 93.3487 23.336 92.4207 23.688C91.5087 24.024 90.4207 24.192 89.1567 24.192ZM113.859 10.896C115.475 10.896 116.755 11.376 117.699 12.336C118.659 13.28 119.139 14.704 119.139 16.608V24H115.395V17.184C115.395 16.16 115.179 15.4 114.747 14.904C114.331 14.392 113.731 14.136 112.947 14.136C112.067 14.136 111.371 14.424 110.859 15C110.347 15.56 110.091 16.4 110.091 17.52V24H106.347V17.184C106.347 15.152 105.531 14.136 103.899 14.136C103.035 14.136 102.347 14.424 101.835 15C101.323 15.56 101.067 16.4 101.067 17.52V24H97.3227V11.088H100.899V12.576C101.379 12.032 101.963 11.616 102.651 11.328C103.355 11.04 104.123 10.896 104.955 10.896C105.867 10.896 106.691 11.08 107.427 11.448C108.163 11.8 108.755 12.32 109.203 13.008C109.731 12.336 110.395 11.816 111.195 11.448C112.011 11.08 112.899 10.896 113.859 10.896ZM127.463 10.896C129.463 10.896 130.999 11.376 132.071 12.336C133.143 13.28 133.679 14.712 133.679 16.632V24H130.175V22.392C129.471 23.592 128.159 24.192 126.239 24.192C125.247 24.192 124.383 24.024 123.647 23.688C122.927 23.352 122.375 22.888 121.991 22.296C121.607 21.704 121.415 21.032 121.415 20.28C121.415 19.08 121.863 18.136 122.759 17.448C123.671 16.76 125.071 16.416 126.959 16.416H129.935C129.935 15.6 129.687 14.976 129.191 14.544C128.695 14.096 127.951 13.872 126.959 13.872C126.271 13.872 125.591 13.984 124.919 14.208C124.263 14.416 123.703 14.704 123.239 15.072L121.895 12.456C122.599 11.96 123.439 11.576 124.415 11.304C125.407 11.032 126.423 10.896 127.463 10.896ZM127.175 21.672C127.815 21.672 128.383 21.528 128.879 21.24C129.375 20.936 129.727 20.496 129.935 19.92V18.6H127.367C125.831 18.6 125.063 19.104 125.063 20.112C125.063 20.592 125.247 20.976 125.615 21.264C125.999 21.536 126.519 21.672 127.175 21.672ZM158.936 24L158.912 13.92L153.968 22.224H152.216L147.296 14.136V24H143.648V7.2H146.864L153.152 17.64L159.344 7.2H162.536L162.584 24H158.936ZM166.066 11.088H169.81V24H166.066V11.088ZM167.938 9.288C167.25 9.288 166.69 9.088 166.258 8.688C165.826 8.288 165.61 7.792 165.61 7.2C165.61 6.608 165.826 6.112 166.258 5.712C166.69 5.312 167.25 5.112 167.938 5.112C168.626 5.112 169.186 5.304 169.618 5.688C170.05 6.072 170.266 6.552 170.266 7.128C170.266 7.752 170.05 8.272 169.618 8.688C169.186 9.088 168.626 9.288 167.938 9.288ZM186.365 11.088V21.84C186.365 24.208 185.749 25.968 184.517 27.12C183.285 28.272 181.485 28.848 179.117 28.848C177.869 28.848 176.685 28.696 175.565 28.392C174.445 28.088 173.517 27.648 172.781 27.072L174.269 24.384C174.813 24.832 175.501 25.184 176.333 25.44C177.165 25.712 177.997 25.848 178.829 25.848C180.125 25.848 181.077 25.552 181.685 24.96C182.309 24.384 182.621 23.504 182.621 22.32V21.768C181.645 22.84 180.285 23.376 178.541 23.376C177.357 23.376 176.269 23.12 175.277 22.608C174.301 22.08 173.525 21.344 172.949 20.4C172.373 19.456 172.085 18.368 172.085 17.136C172.085 15.904 172.373 14.816 172.949 13.872C173.525 12.928 174.301 12.2 175.277 11.688C176.269 11.16 177.357 10.896 178.541 10.896C180.413 10.896 181.837 11.512 182.813 12.744V11.088H186.365ZM179.285 20.304C180.277 20.304 181.085 20.016 181.709 19.44C182.349 18.848 182.669 18.08 182.669 17.136C182.669 16.192 182.349 15.432 181.709 14.856C181.085 14.264 180.277 13.968 179.285 13.968C178.293 13.968 177.477 14.264 176.837 14.856C176.197 15.432 175.877 16.192 175.877 17.136C175.877 18.08 176.197 18.848 176.837 19.44C177.477 20.016 178.293 20.304 179.285 20.304ZM193.185 12.792C193.633 12.168 194.233 11.696 194.985 11.376C195.753 11.056 196.633 10.896 197.625 10.896V14.352C197.209 14.32 196.929 14.304 196.785 14.304C195.713 14.304 194.873 14.608 194.265 15.216C193.657 15.808 193.353 16.704 193.353 17.904V24H189.609V11.088H193.185V12.792ZM204.749 10.896C206.749 10.896 208.285 11.376 209.357 12.336C210.429 13.28 210.965 14.712 210.965 16.632V24H207.461V22.392C206.757 23.592 205.445 24.192 203.525 24.192C202.533 24.192 201.669 24.024 200.933 23.688C200.213 23.352 199.661 22.888 199.277 22.296C198.893 21.704 198.701 21.032 198.701 20.28C198.701 19.08 199.149 18.136 200.045 17.448C200.957 16.76 202.357 16.416 204.245 16.416H207.221C207.221 15.6 206.973 14.976 206.477 14.544C205.981 14.096 205.237 13.872 204.245 13.872C203.557 13.872 202.877 13.984 202.205 14.208C201.549 14.416 200.989 14.704 200.525 15.072L199.181 12.456C199.885 11.96 200.725 11.576 201.701 11.304C202.693 11.032 203.709 10.896 204.749 10.896ZM204.461 21.672C205.101 21.672 205.669 21.528 206.165 21.24C206.661 20.936 207.013 20.496 207.221 19.92V18.6H204.653C203.117 18.6 202.349 19.104 202.349 20.112C202.349 20.592 202.533 20.976 202.901 21.264C203.285 21.536 203.805 21.672 204.461 21.672ZM222.442 23.376C222.074 23.648 221.618 23.856 221.074 24C220.546 24.128 219.986 24.192 219.394 24.192C217.858 24.192 216.666 23.8 215.818 23.016C214.986 22.232 214.57 21.08 214.57 19.56V14.256H212.578V11.376H214.57V8.232H218.314V11.376H221.53V14.256H218.314V19.512C218.314 20.056 218.45 20.48 218.722 20.784C219.01 21.072 219.41 21.216 219.922 21.216C220.514 21.216 221.018 21.056 221.434 20.736L222.442 23.376ZM236.553 17.592C236.553 17.64 236.529 17.976 236.481 18.6H226.713C226.889 19.4 227.305 20.032 227.961 20.496C228.617 20.96 229.433 21.192 230.409 21.192C231.081 21.192 231.673 21.096 232.185 20.904C232.713 20.696 233.201 20.376 233.649 19.944L235.641 22.104C234.425 23.496 232.649 24.192 230.313 24.192C228.857 24.192 227.569 23.912 226.449 23.352C225.329 22.776 224.465 21.984 223.857 20.976C223.249 19.968 222.945 18.824 222.945 17.544C222.945 16.28 223.241 15.144 223.833 14.136C224.441 13.112 225.265 12.32 226.305 11.76C227.361 11.184 228.537 10.896 229.833 10.896C231.097 10.896 232.241 11.168 233.265 11.712C234.289 12.256 235.089 13.04 235.665 14.064C236.257 15.072 236.553 16.248 236.553 17.592ZM229.857 13.728C229.009 13.728 228.297 13.968 227.721 14.448C227.145 14.928 226.793 15.584 226.665 16.416H233.025C232.897 15.6 232.545 14.952 231.969 14.472C231.393 13.976 230.689 13.728 229.857 13.728Z" fill="#082133"/>
<path opacity="0.5" d="M10.0291 30.3808C10.7477 31.6254 12.5441 31.6254 13.2627 30.3808L22.357 14.629C23.0756 13.3844 22.1773 11.8287 20.7402 11.8287L2.5516 11.8287C1.11448 11.8287 0.21627 13.3844 0.934833 14.629L10.0291 30.3808Z" fill="#C9D3DB"/>
<path d="M20.235 1.61919C20.9536 0.374607 22.75 0.374603 23.4685 1.61919L32.5628 17.371C33.2814 18.6156 32.3832 20.1713 30.9461 20.1713L12.7574 20.1713C11.3203 20.1713 10.4221 18.6156 11.1407 17.371L20.235 1.61919Z" fill="#25C26A"/>
<path fill-rule="evenodd" clip-rule="evenodd" d="M19.1572 20.1713L22.357 14.629C23.0756 13.3845 22.1774 11.8287 20.7403 11.8287L14.3406 11.8287L11.1407 17.371C10.4222 18.6156 11.3204 20.1713 12.7575 20.1713L19.1572 20.1713Z" fill="#08A54D"/>
</svg>
