<svg width="90" height="32" viewBox="0 0 90 32" fill="none" xmlns="http://www.w3.org/2000/svg">
<path d="M50.992 7.2H54.88V20.832H63.304V24H50.992V7.2ZM64.9724 11.088H68.7164V24H64.9724V11.088ZM66.8444 9.288C66.1564 9.288 65.5964 9.088 65.1644 8.688C64.7324 8.288 64.5164 7.792 64.5164 7.2C64.5164 6.608 64.7324 6.112 65.1644 5.712C65.5964 5.312 66.1564 5.112 66.8444 5.112C67.5324 5.112 68.0924 5.304 68.5244 5.688C68.9564 6.072 69.1724 6.552 69.1724 7.128C69.1724 7.752 68.9564 8.272 68.5244 8.688C68.0924 9.088 67.5324 9.288 66.8444 9.288ZM76.0551 11.376H79.3671V14.256H76.1511V24H72.4071V14.256H70.4151V11.376H72.4071V10.8C72.4071 9.328 72.8391 8.16 73.7031 7.296C74.5831 6.432 75.8151 6 77.3991 6C77.9591 6 78.4871 6.064 78.9831 6.192C79.4951 6.304 79.9191 6.472 80.2551 6.696L79.2711 9.408C78.8391 9.104 78.3351 8.952 77.7591 8.952C76.6231 8.952 76.0551 9.576 76.0551 10.824V11.376ZM89.3204 23.376C88.9524 23.648 88.4964 23.856 87.9524 24C87.4244 24.128 86.8644 24.192 86.2724 24.192C84.7364 24.192 83.5444 23.8 82.6964 23.016C81.8644 22.232 81.4484 21.08 81.4484 19.56V14.256H79.4564V11.376H81.4484V8.232H85.1924V11.376H88.4084V14.256H85.1924V19.512C85.1924 20.056 85.3284 20.48 85.6004 20.784C85.8884 21.072 86.2884 21.216 86.8004 21.216C87.3924 21.216 87.8964 21.056 88.3124 20.736L89.3204 23.376Z" fill="#082133"/>
<path opacity="0.5" d="M10.0291 30.3808C10.7477 31.6254 12.5441 31.6254 13.2627 30.3808L22.357 14.629C23.0756 13.3844 22.1773 11.8287 20.7402 11.8287L2.5516 11.8287C1.11448 11.8287 0.21627 13.3844 0.934833 14.629L10.0291 30.3808Z" fill="#C9D3DB"/>
<path d="M20.235 1.61919C20.9536 0.374607 22.75 0.374603 23.4685 1.61919L32.5628 17.371C33.2814 18.6156 32.3832 20.1713 30.9461 20.1713L12.7574 20.1713C11.3203 20.1713 10.4221 18.6156 11.1407 17.371L20.235 1.61919Z" fill="#25C26A"/>
<path fill-rule="evenodd" clip-rule="evenodd" d="M19.1572 20.1713L22.357 14.629C23.0756 13.3845 22.1774 11.8287 20.7403 11.8287L14.3406 11.8287L11.1407 17.371C10.4222 18.6156 11.3204 20.1713 12.7575 20.1713L19.1572 20.1713Z" fill="#08A54D"/>
</svg>
