<svg width="145" height="32" viewBox="0 0 145 32" fill="none" xmlns="http://www.w3.org/2000/svg">
<path d="M66.28 24L66.256 13.92L61.312 22.224H59.56L54.64 14.136V24H50.992V7.2H54.208L60.496 17.64L66.688 7.2H69.88L69.928 24H66.28ZM73.4099 11.088H77.1539V24H73.4099V11.088ZM75.2819 9.288C74.5939 9.288 74.0339 9.088 73.6019 8.688C73.1699 8.288 72.9539 7.792 72.9539 7.2C72.9539 6.608 73.1699 6.112 73.6019 5.712C74.0339 5.312 74.5939 5.112 75.2819 5.112C75.9699 5.112 76.5299 5.304 76.9619 5.688C77.3939 6.072 77.6099 6.552 77.6099 7.128C77.6099 7.752 77.3939 8.272 76.9619 8.688C76.5299 9.088 75.9699 9.288 75.2819 9.288ZM93.7086 11.088V21.84C93.7086 24.208 93.0926 25.968 91.8606 27.12C90.6286 28.272 88.8286 28.848 86.4606 28.848C85.2126 28.848 84.0286 28.696 82.9086 28.392C81.7886 28.088 80.8606 27.648 80.1246 27.072L81.6126 24.384C82.1566 24.832 82.8446 25.184 83.6766 25.44C84.5086 25.712 85.3406 25.848 86.1726 25.848C87.4686 25.848 88.4206 25.552 89.0286 24.96C89.6526 24.384 89.9646 23.504 89.9646 22.32V21.768C88.9886 22.84 87.6286 23.376 85.8846 23.376C84.7006 23.376 83.6126 23.12 82.6206 22.608C81.6446 22.08 80.8686 21.344 80.2926 20.4C79.7166 19.456 79.4286 18.368 79.4286 17.136C79.4286 15.904 79.7166 14.816 80.2926 13.872C80.8686 12.928 81.6446 12.2 82.6206 11.688C83.6126 11.16 84.7006 10.896 85.8846 10.896C87.7566 10.896 89.1806 11.512 90.1566 12.744V11.088H93.7086ZM86.6286 20.304C87.6206 20.304 88.4286 20.016 89.0526 19.44C89.6926 18.848 90.0126 18.08 90.0126 17.136C90.0126 16.192 89.6926 15.432 89.0526 14.856C88.4286 14.264 87.6206 13.968 86.6286 13.968C85.6366 13.968 84.8206 14.264 84.1806 14.856C83.5406 15.432 83.2206 16.192 83.2206 17.136C83.2206 18.08 83.5406 18.848 84.1806 19.44C84.8206 20.016 85.6366 20.304 86.6286 20.304ZM100.529 12.792C100.977 12.168 101.577 11.696 102.329 11.376C103.097 11.056 103.977 10.896 104.969 10.896V14.352C104.553 14.32 104.273 14.304 104.129 14.304C103.057 14.304 102.217 14.608 101.609 15.216C101.001 15.808 100.697 16.704 100.697 17.904V24H96.9533V11.088H100.529V12.792ZM112.093 10.896C114.093 10.896 115.629 11.376 116.701 12.336C117.773 13.28 118.309 14.712 118.309 16.632V24H114.805V22.392C114.101 23.592 112.789 24.192 110.869 24.192C109.877 24.192 109.013 24.024 108.277 23.688C107.557 23.352 107.005 22.888 106.621 22.296C106.237 21.704 106.045 21.032 106.045 20.28C106.045 19.08 106.493 18.136 107.389 17.448C108.301 16.76 109.701 16.416 111.589 16.416H114.565C114.565 15.6 114.317 14.976 113.821 14.544C113.325 14.096 112.581 13.872 111.589 13.872C110.901 13.872 110.221 13.984 109.549 14.208C108.893 14.416 108.333 14.704 107.869 15.072L106.525 12.456C107.229 11.96 108.069 11.576 109.045 11.304C110.037 11.032 111.053 10.896 112.093 10.896ZM111.805 21.672C112.445 21.672 113.013 21.528 113.509 21.24C114.005 20.936 114.357 20.496 114.565 19.92V18.6H111.997C110.461 18.6 109.693 19.104 109.693 20.112C109.693 20.592 109.877 20.976 110.245 21.264C110.629 21.536 111.149 21.672 111.805 21.672ZM129.786 23.376C129.418 23.648 128.962 23.856 128.418 24C127.89 24.128 127.33 24.192 126.738 24.192C125.202 24.192 124.01 23.8 123.162 23.016C122.33 22.232 121.914 21.08 121.914 19.56V14.256H119.922V11.376H121.914V8.232H125.658V11.376H128.874V14.256H125.658V19.512C125.658 20.056 125.794 20.48 126.066 20.784C126.354 21.072 126.754 21.216 127.266 21.216C127.858 21.216 128.362 21.056 128.778 20.736L129.786 23.376ZM143.897 17.592C143.897 17.64 143.873 17.976 143.825 18.6H134.057C134.233 19.4 134.649 20.032 135.305 20.496C135.961 20.96 136.777 21.192 137.753 21.192C138.425 21.192 139.017 21.096 139.529 20.904C140.057 20.696 140.545 20.376 140.993 19.944L142.985 22.104C141.769 23.496 139.993 24.192 137.657 24.192C136.201 24.192 134.913 23.912 133.793 23.352C132.673 22.776 131.809 21.984 131.201 20.976C130.593 19.968 130.289 18.824 130.289 17.544C130.289 16.28 130.585 15.144 131.177 14.136C131.785 13.112 132.609 12.32 133.649 11.76C134.705 11.184 135.881 10.896 137.177 10.896C138.441 10.896 139.585 11.168 140.609 11.712C141.633 12.256 142.433 13.04 143.009 14.064C143.601 15.072 143.897 16.248 143.897 17.592ZM137.201 13.728C136.353 13.728 135.641 13.968 135.065 14.448C134.489 14.928 134.137 15.584 134.009 16.416H140.369C140.241 15.6 139.889 14.952 139.313 14.472C138.737 13.976 138.033 13.728 137.201 13.728Z" fill="#082133"/>
<path opacity="0.5" d="M10.0291 30.3808C10.7477 31.6254 12.5441 31.6254 13.2627 30.3808L22.357 14.629C23.0756 13.3844 22.1773 11.8287 20.7402 11.8287L2.5516 11.8287C1.11448 11.8287 0.21627 13.3844 0.934833 14.629L10.0291 30.3808Z" fill="#C9D3DB"/>
<path d="M20.235 1.61919C20.9536 0.374607 22.75 0.374603 23.4685 1.61919L32.5628 17.371C33.2814 18.6156 32.3832 20.1713 30.9461 20.1713L12.7574 20.1713C11.3203 20.1713 10.4221 18.6156 11.1407 17.371L20.235 1.61919Z" fill="#25C26A"/>
<path fill-rule="evenodd" clip-rule="evenodd" d="M19.1572 20.1713L22.357 14.629C23.0756 13.3845 22.1774 11.8287 20.7403 11.8287L14.3406 11.8287L11.1407 17.371C10.4222 18.6156 11.3204 20.1713 12.7575 20.1713L19.1572 20.1713Z" fill="#08A54D"/>
</svg>
